<svg width="16" height="13" viewBox="0 0 16 13" fill="none" xmlns="http://www.w3.org/2000/svg">
  <path d="M8 9.5C8.5 9.5 9.03125 9.34375 9.46875 9L16 3.9375V11C16 11.8438 15.3125 12.5 14.5 12.5H1.5C0.65625 12.5 0 11.8438 0 11V3.9375L6.5 9C6.9375 9.34375 7.46875 9.5 8 9.5ZM0.5 3.0625C0.1875 2.8125 0 2.40625 0 2C0 1.1875 0.65625 0.5 1.5 0.5H14.5C15.3125 0.5 16 1.1875 16 2C16 2.40625 15.7812 2.8125 15.4688 3.0625L8.84375 8.21875C8.34375 8.59375 7.625 8.59375 7.125 8.21875L0.5 3.0625Z" fill="#FF733C"/>
</svg>
