<svg width="18" height="17" viewBox="0 0 18 17" fill="none" xmlns="http://www.w3.org/2000/svg">
  <path d="M16.8438 4.34375C17.0312 5.09375 17.0312 5.90625 16.7812 6.75C16.3125 8.6875 14.6875 10.1562 12.75 10.4688C11.9062 10.625 11.0938 10.5312 10.375 10.2812L4.8125 15.8438C4.34375 16.2812 3.75 16.5 3.21875 16.5C2.65625 16.5 2.09375 16.2812 1.6875 15.8125C0.78125 14.9375 0.78125 13.5312 1.6875 12.6562L7.25 7.09375C7 6.34375 6.90625 5.53125 7.09375 4.71875C7.375 2.78125 8.875 1.15625 10.8125 0.6875C11.625 0.5 12.4375 0.5 13.1875 0.6875C13.5625 0.78125 13.6875 1.25 13.4062 1.53125L11 3.90625V6.53125H13.625L16 4.125C16.2812 3.84375 16.75 3.96875 16.8438 4.34375ZM3.5 14.75C3.90625 14.75 4.25 14.4375 4.25 14C4.25 13.5938 3.90625 13.25 3.5 13.25C3.0625 13.25 2.75 13.5938 2.75 14C2.75 14.4375 3.0625 14.75 3.5 14.75Z" fill="#FF733C"/>
</svg>
